<svg fill="none" height="32" viewBox="0 0 32 32" width="32" xmlns="http://www.w3.org/2000/svg"><path clip-rule="evenodd" d="m0 0h32v32h-32zm8 16.1675c0-4.4036 3.5718-7.9755 7.9755-7.9755s7.9755 3.5719 8.0245 7.9755c0 3.523-2.2508 6.5077-5.4312 7.5841-.3914.049-.5382-.1957-.5382-.3914v-2.2018c0-.734-.2447-1.2233-.5382-1.4679 1.7614-.1957 3.6208-.8318 3.6208-3.9144 0-.8807-.3426-1.6147-.8318-2.1529.0038-.0154.0092-.0347.0156-.0577.0749-.2702.2922-1.0544-.1135-2.0463 0 0-.685-.1957-2.2019.8318-.636-.1468-1.3211-.2446-2.0061-.2446s-1.37.0489-2.0061.2446c-1.5168-1.0275-2.2018-.8318-2.2018-.8318-.4325 1.0571-.1571 1.8783-.1007 2.0465l.0028.0086c-.5382.5871-.8318 1.2721-.8318 2.1529 0 3.0825 1.8594 3.7676 3.6208 3.9633-.1957.1957-.4403.5382-.4893 1.0764-.4403.1957-1.5657.5383-2.2997-.685 0 0-.4403-.7829-1.2232-.8318 0 0-.78286 0-.0489.4893 0 0 .5382.2447.8807 1.1743 0 0 .4893 1.5658 2.6911 1.0765v1.37c0 .1957-.1468.4404-.5382.3914-3.1315-1.0764-5.4312-4.0611-5.4312-7.5841z" fill="#fff" fill-rule="evenodd"/></svg>